<?xml version="1.0" encoding="UTF-8" standalone="no"?> <svg xmlns:dc="http://purl.org/dc/elements/1.1/" xmlns:cc="http://creativecommons.org/ns#" xmlns:rdf="http://www.w3.org/1999/02/22-rdf-syntax-ns#" xmlns:svg="http://www.w3.org/2000/svg" xmlns="http://www.w3.org/2000/svg" xmlns:sodipodi="http://sodipodi.sourceforge.net/DTD/sodipodi-0.dtd" xmlns:inkscape="http://www.inkscape.org/namespaces/inkscape" inkscape:version="1.0 (4035a4f, 2020-05-01)" sodipodi:docname="undraw_visual_data_b1wx copy.svg" version="1.1" viewBox="0 0 1113.58 784.41" height="784.41" width="1113.58" data-name="Layer 1" id="b43bf247-fd00-4c66-86de-2f4e4870ba29"><metadata id="metadata303"></metadata><defs id="defs170"><linearGradient gradientUnits="userSpaceOnUse" gradientTransform="matrix(-1, 0, 0, 1, 2040, 0)" y2="609.55" x2="1147.32" y1="609.55" x1="990.77" id="e697e668-bf6d-4d5c-9412-9fae30629717"><stop id="stop163" stop-opacity="0.25" stop-color="gray" offset="0"></stop><stop id="stop165" stop-opacity="0.12" stop-color="gray" offset="0.54"></stop><stop id="stop167" stop-opacity="0.1" stop-color="gray" offset="1"></stop></linearGradient><linearGradient id="b629f179-8ab2-4411-a7df-956765958247" x1="344.9209" y1="369.39722" x2="505.39917" y2="369.39722" gradientUnits="userSpaceOnUse"><stop offset="0" stop-color="gray" stop-opacity="0.25" id="stop998"></stop><stop offset="0.53514" stop-color="gray" stop-opacity="0.12" id="stop1000"></stop><stop offset="1" stop-color="gray" stop-opacity="0.1" id="stop1002"></stop></linearGradient></defs><title id="title172">visual data</title><path transform="translate(-43.21 -57.79)" id="path176" opacity="0.1" fill="#496998" d="M1113.76,752.68c-24.35,20.2-59,28.56-92.51,33.84l-5.64.86c-35,5.22-70.39,8-105.9,9.69-19,.92-38,1.57-57,2.15l-14.89.44q-29,.86-58.11,1.69-28.5.81-57,1.52-36.5.89-73,1.48-28.5.45-57,.62-36.51.21-73-.14-28.52-.29-57-1-36.52-.94-73-2.75-24.76-1.21-49.49-2.91l-7.51-.53c-70.77-5.1-142.81-14.25-204.74-43.17l-1.67-.79c-.83-.39-1.66-.78-2.49-1.19a224.11,224.11,0,0,1-32.56-19.09c-18.31-13.06-33.43-29-41.42-47.91-12.52-29.66-5.9-63,8.4-92S94,538.31,112.57,511c5.44-8,10.6-16.3,15.4-24.81,30-53.37,44.88-115.13,13.43-166.56a228.58,228.58,0,0,0-13.43-19c-7.67-10-15.47-20-20.74-31.07-12.29-25.76-9.65-54.73-5.17-82.25,6-36.59,17-76,51.38-98.86,35.67-23.74,86.3-22.54,130.57-14,68.83,13.19,132.36,40.8,196.49,65.7s131.31,47.67,201.82,50.12a322.09,322.09,0,0,0,45.38-1.65h0a287.81,287.81,0,0,0,59.12-12.45c27.75-9.14,53-22.89,71.72-42,40.15-40.85,115.6-43.94,170-19.27,51.91,23.54,85.48,73.36,83,123.12-2.82,55.39-44.3,100.93-82.31,147.64-4.61,5.66-9.16,11.34-13.59,17.06q-3.71,4.79-7.28,9.6h0c-4.17,5.66-8.2,11.35-12,17.11-19.42,29.53-33.15,65-19.78,96.88,7.5,17.85,21.81,31.47,39.06,43.36,38.65,26.63,92,44.55,116,81.83C1152.32,683.63,1144.66,727,1113.76,752.68Z"></path><g transform="translate(-43.935514,364.51071)" id="g996"><g id="g352" transform="matrix(0.54617276,0,0,0.54617276,120.80208,70.492616)"><path id="path330" fill="#496998" d="m 249.215,374.856 c -4.143,0 -7.5,3.357 -7.5,7.5 0,4.143 3.357,7.5 7.5,7.5 h 13.471 c 4.143,0 7.5,-3.357 7.5,-7.5 0,-4.143 -3.357,-7.5 -7.5,-7.5 z"></path><path id="path332" fill="#496998" d="M 481.812,84.847 H 30.089 C 13.498,84.847 0,98.345 0,114.936 v 270.035 c 0,16.591 13.498,30.089 30.089,30.089 h 189.395 c -0.738,9.868 -3.019,27.731 -10.051,42.926 h -40.664 c -13.521,0 -24.52,10.999 -24.52,24.52 v 21.611 c 0,4.143 3.357,7.5 7.5,7.5 h 208.402 c 4.143,0 7.5,-3.357 7.5,-7.5 v -21.611 c 0,-13.521 -10.999,-24.52 -24.52,-24.52 h -40.663 c -7.007,-15.154 -9.297,-33.043 -10.044,-42.926 H 349.2 c 4.143,0 7.5,-3.357 7.5,-7.5 0,-4.143 -3.357,-7.5 -7.5,-7.5 H 30.089 C 21.769,400.06 15,393.291 15,384.971 v -20.318 h 481.9 v 20.318 c 0,8.32 -6.769,15.089 -15.089,15.089 h -97.444 c -4.143,0 -7.5,3.357 -7.5,7.5 0,4.143 3.357,7.5 7.5,7.5 h 97.444 c 16.591,0 30.089,-13.498 30.089,-30.089 V 114.936 c 0,-16.591 -13.498,-30.089 -30.088,-30.089 z m -138.68,388.139 c 5.249,0 9.52,4.271 9.52,9.52 v 14.111 H 159.249 v -14.111 c 0,-5.249 4.271,-9.52 9.52,-9.52 z M 234.534,415.06 h 42.833 c 0.643,9.538 2.639,26.671 8.837,42.926 h -60.506 c 6.197,-16.255 8.193,-33.388 8.836,-42.926 z M 248.45,349.653 H 53.188 V 325.747 H 248.45 Z m -139.644,-99.335 42.119,-33.252 42.12,33.257 v 60.424 H 108.806 Z M 91.31,245.019 c -1.84,1.453 -4.122,2.009 -6.423,1.565 -2.302,-0.443 -4.214,-1.807 -5.383,-3.84 -1.947,-3.385 -1.106,-7.765 1.957,-10.188 0,0 69.207,-54.63 69.464,-54.63 0.257,0 69.14,54.373 69.14,54.373 3.056,2.418 4.091,7.484 2.171,10.632 -1.195,1.961 -3.104,3.265 -5.374,3.672 -2.269,0.403 -4.513,-0.155 -6.321,-1.584 l -54.968,-43.396 c -2.725,-2.15 -6.57,-2.15 -9.295,0 z M 458.711,349.653 H 263.45 V 325.747 H 458.711 Z M 318.86,310.747 V 183.506 h 84.44 v 127.241 z m 139.851,0 h -40.41 V 183.102 c 0,-8.049 -6.548,-14.597 -14.596,-14.597 h -85.249 c -8.048,0 -14.596,6.548 -14.596,14.597 V 310.747 H 263.45 V 140.059 H 458.711 Z M 496.9,349.653 H 473.711 V 318.247 138.53 c 0,-7.428 -6.043,-13.471 -13.47,-13.471 H 220.882 c -4.143,0 -7.5,3.357 -7.5,7.5 0,4.143 3.357,7.5 7.5,7.5 h 27.568 v 170.688 h -40.405 v -50.26 c 3.648,1.246 7.591,1.576 11.464,0.881 6.459,-1.158 12.12,-5.031 15.532,-10.625 5.836,-9.566 3.292,-23.117 -5.67,-30.207 l -68.413,-54.12 c -5.906,-4.672 -14.159,-4.673 -20.067,0.001 l -68.736,54.376 c -8.849,7 -11.278,19.653 -5.652,29.432 3.327,5.785 8.995,9.827 15.549,11.09 1.444,0.278 2.898,0.415 4.344,0.415 2.53,0 5.032,-0.422 7.411,-1.235 v 50.253 H 53.188 V 140.059 h 132.376 c 4.143,0 7.5,-3.357 7.5,-7.5 0,-4.143 -3.357,-7.5 -7.5,-7.5 H 51.659 c -7.428,0 -13.471,6.043 -13.471,13.471 v 179.717 31.406 H 15 V 114.936 c 0,-8.32 6.769,-15.089 15.089,-15.089 h 451.723 c 8.32,0 15.089,6.769 15.089,15.089 v 234.717 z"></path><path id="path334" fill="#496998" d="m 361.081,194.916 c -14.314,0 -25.961,11.646 -25.961,25.961 0,14.315 11.646,25.96 25.961,25.96 14.315,0 25.96,-11.646 25.96,-25.96 0,-14.314 -11.645,-25.961 -25.96,-25.961 z m 0,36.921 c -6.044,0 -10.961,-4.917 -10.961,-10.96 0,-6.044 4.917,-10.961 10.961,-10.961 6.043,0 10.96,4.917 10.96,10.961 0,6.043 -4.917,10.96 -10.96,10.96 z"></path><path id="path336" fill="#496998" d="m 336.513,261.374 c -4.143,0 -7.5,3.357 -7.5,7.5 v 5.59 c 0,4.143 3.357,7.5 7.5,7.5 4.143,0 7.5,-3.357 7.5,-7.5 v -5.59 c 0,-4.143 -3.358,-7.5 -7.5,-7.5 z"></path><g id="g350"><g id="g340"><circle id="circle338" fill="#496998" r="8.2139997" cy="63.445" cx="255.60699"></circle></g><g id="g344"><path id="path342" fill="#496998" d="m 246.187,43.346 c -2.661,0 -5.237,-1.418 -6.597,-3.921 -1.978,-3.64 -0.63,-8.193 3.01,-10.17 4.046,-2.198 8.629,-3.36 13.255,-3.36 4.361,0 8.71,1.038 12.576,3.003 3.693,1.877 5.165,6.392 3.289,10.084 -1.876,3.694 -6.391,5.164 -10.084,3.289 -1.797,-0.913 -3.741,-1.376 -5.781,-1.376 -2.162,0 -4.213,0.519 -6.095,1.54 -1.137,0.618 -2.364,0.911 -3.573,0.911 z"></path></g><g id="g348"><path id="path346" fill="#496998" d="m 285.748,23.582 c -1.324,0 -2.664,-0.351 -3.878,-1.086 -7.792,-4.719 -16.756,-7.213 -25.921,-7.213 -9.164,0 -18.127,2.494 -25.919,7.213 -3.546,2.142 -8.155,1.013 -10.301,-2.531 -2.145,-3.543 -1.012,-8.155 2.531,-10.301 10.136,-6.137 21.785,-9.381 33.688,-9.381 11.905,0 23.556,3.244 33.69,9.383 3.543,2.146 4.676,6.757 2.53,10.3 -1.408,2.329 -3.884,3.616 -6.42,3.616 z"></path></g></g></g></g><g transform="matrix(0.74063529,0,0,0.74063529,277.47297,-147.43591)" id="g982"><path id="path305" fill="#496998" d="M 1003.5974,314.58539 H 671.10687 c -3.06445,0 -5.54151,2.48259 -5.54151,5.5415 v 33.24907 c 0,3.05891 2.47706,5.5415 5.54151,5.5415 h 16.62453 v 16.62453 c 0,3.05891 2.47705,5.54151 5.54151,5.54151 h 5.54151 v 16.62453 c 0,39.72153 32.31807,72.03961 72.03957,72.03961 33.99166,0 62.49167,-23.69549 70.02808,-55.41508 h 85.13423 c 15.27791,0 27.70758,-12.42962 27.70758,-27.70756 v -5.5415 h 38.79055 c 3.06449,0 5.54153,-2.4826 5.54153,-5.54151 v -16.62453 h 5.54144 c 3.0645,0 5.5415,-2.48259 5.5415,-5.5415 v -33.24907 c 0,-3.05891 -2.477,-5.5415 -5.5415,-5.5415 z m -160.70376,44.33207 v 11.08303 H 698.81442 v -11.08303 z m -72.03965,99.74717 c -33.6092,0 -60.95656,-27.34736 -60.95656,-60.9566 V 381.0835 h 121.91323 v 16.62453 c 0,33.60924 -27.34736,60.9566 -60.95667,60.9566 z M 942.64078,386.625 c 0,9.16566 -7.45885,16.62453 -16.62448,16.62453 h -83.40532 c 0.14419,-1.83423 0.28266,-3.66848 0.28266,-5.5415 V 381.0835 h 5.54149 c 3.06454,0 5.54151,-2.4826 5.54151,-5.54151 v -16.62453 h 66.49816 v 16.62453 c 0,3.05891 2.47709,5.54151 5.5415,5.54151 h 16.62448 z m 44.33211,-16.62451 h -55.4151 v -11.08303 h 55.4151 z m 11.08307,-22.16604 H 676.64839 v -22.16603 h 321.40757 z" style="stroke-width:5.5415"></path><path id="path307" fill="#496998" d="m 770.85399,392.16652 c -15.27789,0 -27.7075,12.4296 -27.7075,27.70754 0,15.27795 12.42961,27.70754 27.7075,27.70754 15.27803,0 27.70758,-12.42959 27.70758,-27.70754 0,-15.27794 -12.42955,-27.70754 -27.70758,-27.70754 z m 0,44.33207 c -9.16562,0 -16.62449,-7.45887 -16.62449,-16.62453 0,-9.16566 7.45887,-16.62453 16.62449,-16.62453 9.16575,0 16.6246,7.45887 16.6246,16.62453 0,9.16566 -7.45885,16.62453 -16.6246,16.62453 z" style="stroke-width:5.5415"></path><path id="path309" fill="#496998" d="m 765.31253,414.33256 h 11.08307 v 11.08301 h -11.08307 z" style="stroke-width:5.5415"></path><path id="path311" fill="#496998" d="m 964.80686,436.49859 h -88.66413 c -12.22457,0 -22.16609,9.94147 -22.16609,22.16604 v 177.32828 c 0,12.22458 9.94152,22.16604 22.16609,22.16604 h 88.66413 c 12.22454,0 22.16603,-9.94146 22.16603,-22.16604 V 458.66463 c 0,-12.22457 -9.94149,-22.16604 -22.16603,-22.16604 z m -13.37721,11.08301 -11.08299,11.08303 H 900.60294 L 889.51995,447.5816 Z m -8.78887,199.49433 h -44.33207 v -5.54152 c 0,-3.05891 2.48267,-5.5415 5.54161,-5.5415 h 33.24896 c 3.05895,0 5.5415,2.48259 5.5415,5.5415 z m 33.24904,-11.08302 c 0,6.11229 -4.97063,11.08302 -11.08296,11.08302 h -11.08298 v -5.54152 c 0,-9.16565 -7.45885,-16.62452 -16.6246,-16.62452 h -33.24896 c -9.16576,0 -16.62461,7.45887 -16.62461,16.62452 v 5.54152 h -11.08298 c -6.11229,0 -11.08299,-4.97073 -11.08299,-11.08302 V 458.66463 c 0,-5.39743 3.88456,-9.89159 8.99933,-10.87245 l 20.3319,20.3318 c 1.03617,1.0418 2.44376,1.62366 3.91774,1.62366 h 44.33207 c 1.47409,0 2.88168,-0.58186 3.91786,-1.62366 l 20.33172,-20.3318 c 5.11492,0.98086 8.99946,5.47502 8.99946,10.87245 z" style="stroke-width:5.5415"></path><path id="path313" fill="#496998" d="m 959.26537,508.5382 c -12.81202,0 -24.85921,-4.98735 -33.91956,-14.04771 l -0.95314,-0.95314 c -2.16671,-2.16673 -5.66904,-2.16673 -7.83573,0 l -0.95315,0.95314 c -9.06035,9.06036 -21.10754,14.04771 -33.91957,14.04771 -3.0644,0 -5.54149,2.47706 -5.54149,5.54151 0,30.06823 11.70922,58.33546 32.97201,79.59824 l 7.4422,7.44225 c 1.08055,1.08059 2.4992,1.62366 3.91786,1.62366 1.41866,0 2.83731,-0.54307 3.91787,-1.62366 l 7.44219,-7.44225 c 21.2628,-21.26278 32.972,-49.53001 32.972,-79.59824 0,-3.06445 -2.47707,-5.54151 -5.54149,-5.54151 z m -35.26612,77.30406 -3.52445,3.52439 -3.52444,-3.52439 c -17.91561,-17.92125 -28.31158,-41.36182 -29.59164,-66.48703 12.29107,-1.16927 23.78413,-6.10674 33.11608,-14.25276 9.33195,8.15156 20.82501,13.08349 33.11608,14.25276 -1.28006,25.12521 -11.67602,48.56578 -29.59163,66.48703 z" style="stroke-width:5.5415"></path><path id="path315" fill="#496998" d="m 903.85032,547.32877 c 0,9.16566 7.45885,16.62453 16.62448,16.62453 9.16563,0 16.62448,-7.45887 16.62448,-16.62453 0,-9.16566 -7.45885,-16.62453 -16.62448,-16.62453 -9.16563,0 -16.62448,7.45887 -16.62448,16.62453 z m 22.16598,0 c 0,3.05892 -2.48256,5.5415 -5.5415,5.5415 -3.05894,0 -5.5415,-2.48258 -5.5415,-5.5415 0,-3.05891 2.48256,-5.5415 5.5415,-5.5415 3.05894,0 5.5415,2.48259 5.5415,5.5415 z" style="stroke-width:5.5415"></path><path id="path317" fill="#496998" d="m 786.8357,495.85924 -7.7803,-7.89111 c -4.37218,4.30574 -12.02506,4.30574 -16.39726,0 l -7.78028,7.89111 c 4.27251,4.21154 9.94702,6.53343 15.98172,6.53343 6.03471,0 11.70362,-2.32189 15.97612,-6.53343 z" style="stroke-width:5.5415"></path><path id="path319" fill="#496998" d="m 738.75208,511.74675 c 8.57824,8.45633 19.97713,13.1112 32.10191,13.1112 12.12487,0 23.52371,-4.65487 32.10202,-13.1112 l -7.78029,-7.89111 c -6.48917,6.3949 -15.12279,9.91929 -24.32173,9.91929 -9.19886,0 -17.83253,-3.52439 -24.32163,-9.91929 z" style="stroke-width:5.5415"></path><path id="path321" fill="#496998" d="m 770.85399,536.24574 c -15.27789,0 -29.64149,-5.86291 -40.44188,-16.50261 l -7.78028,7.89112 c 12.88954,12.70113 30.0128,19.69452 48.22216,19.69452 18.20944,0 35.33274,-6.99339 48.22221,-19.69452 l -7.78029,-7.89112 c -10.80033,10.6397 -25.16389,16.50261 -40.44192,16.50261 z" style="stroke-width:5.5415"></path></g><g transform="matrix(0.99289307,0,0,0.99289307,68.171284,-116.63829)" id="g1176"><path id="path1009" fill="#3f3d56" d="m 517.75888,322.27608 -164.49014,101.2247 c 0,0 0,208.77594 164.49014,322.65376 C 682.24902,632.27676 682.24902,423.50078 682.24902,423.50078 Z" style="stroke-width:0.609896"></path><path id="path1011" opacity="0.04" fill="#496998" d="m 518.74099,322.27608 -2.81179,1.73034 v 420.17349 c 0.93375,0.66018 1.8672,1.32065 2.81179,1.9746 C 683.23113,632.27672 683.23113,423.50075 683.23113,423.50075 Z" style="stroke-width:0.609896"></path><g id="g1015" opacity="0.7" transform="matrix(0.60989576,0,0,0.60989576,254.65035,315.72195)"><polygon id="polygon1013" fill="url(#b629f179-8ab2-4411-a7df-956765958247)" points="479.977,302.75 505.399,323.935 416.949,436.044 344.921,355.542 366.106,347.068 416.949,393.674 " style="fill:url(#b629f179-8ab2-4411-a7df-956765958247)"></polygon></g><polygon id="polygon1017" fill="#3ad29f" points="419.349,422.044 360.921,356.742 378.106,349.868 419.349,387.674 477.777,301.75 498.399,318.935 " transform="matrix(0.60989576,0,0,0.60989576,254.65035,315.72195)"></polygon></g></svg> 